<svg width="122" height="30" viewBox="0 0 122 30" fill="none" xmlns="http://www.w3.org/2000/svg">
<rect width="122" height="30" rx="15" fill="#D9D6B0"/>
<path d="M13.2784 21V9.36364H17.5398C18.3655 9.36364 19.0492 9.5 19.5909 9.77273C20.1326 10.0417 20.5379 10.4072 20.8068 10.8693C21.0758 11.3277 21.2102 11.8447 21.2102 12.4205C21.2102 12.9053 21.1212 13.3144 20.9432 13.6477C20.7652 13.9773 20.5265 14.2424 20.2273 14.4432C19.9318 14.6402 19.6061 14.7841 19.25 14.875V14.9886C19.6364 15.0076 20.0133 15.1326 20.3807 15.3636C20.7519 15.5909 21.0587 15.9148 21.3011 16.3352C21.5436 16.7557 21.6648 17.267 21.6648 17.8693C21.6648 18.464 21.5246 18.9981 21.2443 19.4716C20.9678 19.9413 20.5398 20.3144 19.9602 20.5909C19.3807 20.8636 18.6402 21 17.7386 21H13.2784ZM15.0341 19.4943H17.5682C18.4091 19.4943 19.0114 19.3314 19.375 19.0057C19.7386 18.6799 19.9205 18.2727 19.9205 17.7841C19.9205 17.4167 19.8277 17.0795 19.642 16.7727C19.4564 16.4659 19.1913 16.2216 18.8466 16.0398C18.5057 15.858 18.1004 15.767 17.6307 15.767H15.0341V19.4943ZM15.0341 14.3977H17.3864C17.7803 14.3977 18.1345 14.322 18.4489 14.1705C18.767 14.0189 19.0189 13.8068 19.2045 13.5341C19.3939 13.2576 19.4886 12.9318 19.4886 12.5568C19.4886 12.0758 19.3201 11.6723 18.983 11.3466C18.6458 11.0208 18.1288 10.858 17.4318 10.858H15.0341V14.3977ZM23.5872 21V9.36364H30.8826V10.875H25.3428V14.4205H30.5019V15.9261H25.3428V19.4886H30.9508V21H23.5872ZM39.4144 12.4205C39.3538 11.8826 39.1038 11.4659 38.6644 11.1705C38.225 10.8712 37.672 10.7216 37.0053 10.7216C36.528 10.7216 36.1151 10.7973 35.7666 10.9489C35.4182 11.0966 35.1473 11.3011 34.9541 11.5625C34.7648 11.8201 34.6701 12.1136 34.6701 12.4432C34.6701 12.7197 34.7345 12.9583 34.8632 13.1591C34.9958 13.3598 35.1682 13.5284 35.3803 13.6648C35.5962 13.7973 35.8273 13.9091 36.0735 14C36.3197 14.0871 36.5564 14.1591 36.7837 14.2159L37.9201 14.5114C38.2913 14.6023 38.672 14.7254 39.0621 14.8807C39.4523 15.036 39.814 15.2405 40.1473 15.4943C40.4807 15.7481 40.7496 16.0625 40.9541 16.4375C41.1625 16.8125 41.2666 17.2614 41.2666 17.7841C41.2666 18.4432 41.0962 19.0284 40.7553 19.5398C40.4182 20.0511 39.9276 20.4545 39.2837 20.75C38.6435 21.0455 37.8689 21.1932 36.9598 21.1932C36.0886 21.1932 35.3348 21.0549 34.6985 20.7784C34.0621 20.5019 33.564 20.1098 33.2041 19.6023C32.8443 19.0909 32.6454 18.4848 32.6076 17.7841H34.3689C34.403 18.2045 34.5394 18.5549 34.778 18.8352C35.0204 19.1117 35.3291 19.3182 35.7041 19.4545C36.0829 19.5871 36.4977 19.6534 36.9485 19.6534C37.4447 19.6534 37.886 19.5758 38.2723 19.4205C38.6625 19.2614 38.9693 19.0417 39.1928 18.7614C39.4163 18.4773 39.528 18.1458 39.528 17.767C39.528 17.4223 39.4295 17.1402 39.2326 16.9205C39.0394 16.7008 38.7761 16.5189 38.4428 16.375C38.1132 16.2311 37.7401 16.1042 37.3235 15.9943L35.9485 15.6193C35.0166 15.3655 34.278 14.9924 33.7326 14.5C33.1909 14.0076 32.9201 13.3561 32.9201 12.5455C32.9201 11.875 33.1019 11.2898 33.4655 10.7898C33.8291 10.2898 34.3216 9.90151 34.9428 9.625C35.564 9.3447 36.2648 9.20455 37.0451 9.20455C37.8329 9.20455 38.528 9.3428 39.1303 9.61932C39.7363 9.89583 40.2136 10.2765 40.5621 10.7614C40.9106 11.2424 41.0924 11.7955 41.1076 12.4205H39.4144ZM42.6308 10.875V9.36364H51.6365V10.875H48.0058V21H46.2558V10.875H42.6308ZM59.8131 12.4205C59.7525 11.8826 59.5025 11.4659 59.0631 11.1705C58.6237 10.8712 58.0707 10.7216 57.404 10.7216C56.9268 10.7216 56.5139 10.7973 56.1654 10.9489C55.8169 11.0966 55.5461 11.3011 55.3529 11.5625C55.1635 11.8201 55.0688 12.1136 55.0688 12.4432C55.0688 12.7197 55.1332 12.9583 55.262 13.1591C55.3946 13.3598 55.5669 13.5284 55.779 13.6648C55.9949 13.7973 56.226 13.9091 56.4722 14C56.7184 14.0871 56.9552 14.1591 57.1824 14.2159L58.3188 14.5114C58.69 14.6023 59.0707 14.7254 59.4609 14.8807C59.851 15.036 60.2127 15.2405 60.5461 15.4943C60.8794 15.7481 61.1484 16.0625 61.3529 16.4375C61.5612 16.8125 61.6654 17.2614 61.6654 17.7841C61.6654 18.4432 61.4949 19.0284 61.154 19.5398C60.8169 20.0511 60.3264 20.4545 59.6824 20.75C59.0423 21.0455 58.2677 21.1932 57.3586 21.1932C56.4874 21.1932 55.7336 21.0549 55.0972 20.7784C54.4609 20.5019 53.9627 20.1098 53.6029 19.6023C53.243 19.0909 53.0442 18.4848 53.0063 17.7841H54.7677C54.8018 18.2045 54.9381 18.5549 55.1768 18.8352C55.4192 19.1117 55.7279 19.3182 56.1029 19.4545C56.4817 19.5871 56.8965 19.6534 57.3472 19.6534C57.8434 19.6534 58.2847 19.5758 58.6711 19.4205C59.0612 19.2614 59.3681 19.0417 59.5915 18.7614C59.815 18.4773 59.9268 18.1458 59.9268 17.767C59.9268 17.4223 59.8283 17.1402 59.6313 16.9205C59.4381 16.7008 59.1749 16.5189 58.8415 16.375C58.512 16.2311 58.1389 16.1042 57.7222 15.9943L56.3472 15.6193C55.4154 15.3655 54.6768 14.9924 54.1313 14.5C53.5896 14.0076 53.3188 13.3561 53.3188 12.5455C53.3188 11.875 53.5006 11.2898 53.8643 10.7898C54.2279 10.2898 54.7203 9.90151 55.3415 9.625C55.9627 9.3447 56.6635 9.20455 57.4438 9.20455C58.2317 9.20455 58.9268 9.3428 59.529 9.61932C60.1351 9.89583 60.6124 10.2765 60.9609 10.7614C61.3093 11.2424 61.4912 11.7955 61.5063 12.4205H59.8131ZM63.6034 21V9.36364H70.8989V10.875H65.3591V14.4205H70.5182V15.9261H65.3591V19.4886H70.967V21H63.6034ZM73.084 21V9.36364H74.8397V19.4886H80.1124V21H73.084ZM81.9553 21V9.36364H83.711V19.4886H88.9837V21H81.9553ZM90.8265 21V9.36364H98.122V10.875H92.5822V14.4205H97.7413V15.9261H92.5822V19.4886H98.1902V21H90.8265ZM100.307 21V9.36364H104.455C105.356 9.36364 106.105 9.51894 106.699 9.82955C107.298 10.1402 107.745 10.5701 108.04 11.1193C108.336 11.6648 108.483 12.2955 108.483 13.0114C108.483 13.7235 108.334 14.3504 108.034 14.892C107.739 15.4299 107.292 15.8485 106.694 16.1477C106.099 16.447 105.351 16.5966 104.449 16.5966H101.307V15.0852H104.29C104.858 15.0852 105.32 15.0038 105.676 14.8409C106.036 14.678 106.3 14.4413 106.466 14.1307C106.633 13.8201 106.716 13.447 106.716 13.0114C106.716 12.572 106.631 12.1913 106.461 11.8693C106.294 11.5473 106.031 11.3011 105.671 11.1307C105.315 10.9564 104.847 10.8693 104.267 10.8693H102.063V21H100.307ZM106.051 15.75L108.926 21H106.926L104.108 15.75H106.051Z" fill="#1D1D1D"/>
</svg>
