<svg width="51" height="13" viewBox="0 0 51 13" fill="none" xmlns="http://www.w3.org/2000/svg">
<path d="M10.9432 4.14773H9.17045C9.10227 3.76894 8.97538 3.43561 8.78977 3.14773C8.60417 2.85985 8.37689 2.61553 8.10795 2.41477C7.83902 2.21401 7.53788 2.0625 7.20455 1.96023C6.875 1.85795 6.52462 1.80682 6.15341 1.80682C5.48295 1.80682 4.88258 1.97538 4.35227 2.3125C3.82576 2.64962 3.40909 3.14394 3.10227 3.79545C2.79924 4.44697 2.64773 5.24242 2.64773 6.18182C2.64773 7.12879 2.79924 7.92803 3.10227 8.57955C3.40909 9.23106 3.82765 9.72348 4.35795 10.0568C4.88826 10.3902 5.48485 10.5568 6.14773 10.5568C6.51515 10.5568 6.86364 10.5076 7.19318 10.4091C7.52652 10.3068 7.82765 10.1572 8.09659 9.96023C8.36553 9.76326 8.5928 9.52273 8.77841 9.23864C8.9678 8.95076 9.09848 8.62121 9.17045 8.25L10.9432 8.25568C10.8485 8.82765 10.6648 9.35417 10.392 9.83523C10.1231 10.3125 9.77652 10.7254 9.35227 11.0739C8.93182 11.4186 8.45076 11.6856 7.90909 11.875C7.36742 12.0644 6.77652 12.1591 6.13636 12.1591C5.12879 12.1591 4.23106 11.9205 3.44318 11.4432C2.6553 10.9621 2.03409 10.2746 1.57955 9.38068C1.12879 8.48674 0.903409 7.42045 0.903409 6.18182C0.903409 4.93939 1.13068 3.87311 1.58523 2.98295C2.03977 2.08901 2.66098 1.40341 3.44886 0.926136C4.23674 0.445075 5.13258 0.204545 6.13636 0.204545C6.75379 0.204545 7.32955 0.29356 7.86364 0.471591C8.40152 0.645833 8.88447 0.903409 9.3125 1.24432C9.74053 1.58144 10.0947 1.99432 10.375 2.48295C10.6553 2.9678 10.8447 3.52273 10.9432 4.14773ZM12.884 12V0.363636H14.6397V10.4886H19.9124V12H12.884ZM31.4101 6.18182C31.4101 7.42424 31.1828 8.49242 30.7283 9.38636C30.2738 10.2765 29.6506 10.9621 28.859 11.4432C28.0711 11.9205 27.1753 12.1591 26.1715 12.1591C25.1639 12.1591 24.2643 11.9205 23.4726 11.4432C22.6847 10.9621 22.0635 10.2746 21.609 9.38068C21.1544 8.48674 20.9272 7.42045 20.9272 6.18182C20.9272 4.93939 21.1544 3.87311 21.609 2.98295C22.0635 2.08901 22.6847 1.40341 23.4726 0.926136C24.2643 0.445075 25.1639 0.204545 26.1715 0.204545C27.1753 0.204545 28.0711 0.445075 28.859 0.926136C29.6506 1.40341 30.2738 2.08901 30.7283 2.98295C31.1828 3.87311 31.4101 4.93939 31.4101 6.18182ZM29.6715 6.18182C29.6715 5.23485 29.5181 4.4375 29.2113 3.78977C28.9082 3.13826 28.4916 2.64583 27.9613 2.3125C27.4347 1.97538 26.8381 1.80682 26.1715 1.80682C25.501 1.80682 24.9025 1.97538 24.376 2.3125C23.8495 2.64583 23.4328 3.13826 23.126 3.78977C22.823 4.4375 22.6715 5.23485 22.6715 6.18182C22.6715 7.12879 22.823 7.92803 23.126 8.57955C23.4328 9.22727 23.8495 9.7197 24.376 10.0568C24.9025 10.3902 25.501 10.5568 26.1715 10.5568C26.8381 10.5568 27.4347 10.3902 27.9613 10.0568C28.4916 9.7197 28.9082 9.22727 29.2113 8.57955C29.5181 7.92803 29.6715 7.12879 29.6715 6.18182ZM39.7856 3.42045C39.725 2.88258 39.475 2.46591 39.0356 2.17045C38.5962 1.87121 38.0432 1.72159 37.3765 1.72159C36.8993 1.72159 36.4864 1.79735 36.1379 1.94886C35.7894 2.09659 35.5186 2.30114 35.3254 2.5625C35.136 2.82008 35.0413 3.11364 35.0413 3.44318C35.0413 3.7197 35.1057 3.95833 35.2345 4.15909C35.3671 4.35985 35.5394 4.52841 35.7515 4.66477C35.9674 4.79735 36.1985 4.90909 36.4447 5C36.6909 5.08712 36.9277 5.15909 37.1549 5.21591L38.2913 5.51136C38.6625 5.60227 39.0432 5.72538 39.4334 5.88068C39.8235 6.03598 40.1852 6.24053 40.5186 6.49432C40.8519 6.74811 41.1209 7.0625 41.3254 7.4375C41.5337 7.8125 41.6379 8.26136 41.6379 8.78409C41.6379 9.44318 41.4674 10.0284 41.1265 10.5398C40.7894 11.0511 40.2989 11.4545 39.6549 11.75C39.0148 12.0455 38.2402 12.1932 37.3311 12.1932C36.4599 12.1932 35.7061 12.0549 35.0697 11.7784C34.4334 11.5019 33.9352 11.1098 33.5754 10.6023C33.2155 10.0909 33.0167 9.48485 32.9788 8.78409H34.7402C34.7743 9.20455 34.9106 9.55492 35.1493 9.83523C35.3917 10.1117 35.7004 10.3182 36.0754 10.4545C36.4542 10.5871 36.869 10.6534 37.3197 10.6534C37.8159 10.6534 38.2572 10.5758 38.6436 10.4205C39.0337 10.2614 39.3405 10.0417 39.564 9.76136C39.7875 9.47727 39.8993 9.14583 39.8993 8.76705C39.8993 8.42235 39.8008 8.14015 39.6038 7.92045C39.4106 7.70076 39.1474 7.51894 38.814 7.375C38.4845 7.23106 38.1114 7.10417 37.6947 6.99432L36.3197 6.61932C35.3879 6.36553 34.6493 5.99242 34.1038 5.5C33.5621 5.00758 33.2913 4.35606 33.2913 3.54545C33.2913 2.875 33.4731 2.28977 33.8368 1.78977C34.2004 1.28977 34.6928 0.901515 35.314 0.625C35.9352 0.344697 36.636 0.204545 37.4163 0.204545C38.2042 0.204545 38.8993 0.342803 39.5015 0.619318C40.1076 0.895833 40.5849 1.27652 40.9334 1.76136C41.2818 2.24242 41.4637 2.79545 41.4788 3.42045H39.7856ZM43.5759 12V0.363636H50.8714V1.875H45.3316V5.42045H50.4907V6.92614H45.3316V10.4886H50.9395V12H43.5759Z" fill="#1D1D1D"/>
</svg>
