<svg width="20" height="18" viewBox="0 0 20 18" fill="none" xmlns="http://www.w3.org/2000/svg">
<path d="M10 17.3252L8.89625 16.3329C7.23858 14.8291 5.86775 13.5369 4.78375 12.4562C3.69975 11.3754 2.84075 10.4134 2.20675 9.57044C1.57275 8.7276 1.12983 7.95869 0.878 7.26369C0.626 6.56885 0.5 5.86377 0.5 5.14844C0.5 3.72927 0.9785 2.5411 1.9355 1.58394C2.89267 0.626937 4.08083 0.148438 5.5 0.148438C6.373 0.148438 7.198 0.352604 7.975 0.760938C8.752 1.16927 9.427 1.75485 10 2.51769C10.573 1.75485 11.248 1.16927 12.025 0.760938C12.802 0.352604 13.627 0.148438 14.5 0.148438C15.9192 0.148438 17.1073 0.626937 18.0645 1.58394C19.0215 2.5411 19.5 3.72927 19.5 5.14844C19.5 5.86377 19.374 6.56885 19.122 7.26369C18.8702 7.95869 18.4272 8.7276 17.7932 9.57044C17.1593 10.4134 16.3018 11.3754 15.221 12.4562C14.1403 13.5369 12.7679 14.8291 11.1038 16.3329L10 17.3252ZM10 15.2984C11.6 13.8588 12.9167 12.6248 13.95 11.5964C14.9833 10.5683 15.8 9.67502 16.4 8.91669C17 8.15835 17.4167 7.48494 17.65 6.89644C17.8833 6.3081 18 5.72544 18 5.14844C18 4.14844 17.6667 3.3151 17 2.64844C16.3333 1.98177 15.5 1.64844 14.5 1.64844C13.7103 1.64844 12.9805 1.87244 12.3105 2.32044C11.6407 2.7686 11.1102 3.39202 10.7192 4.19069H9.28075C8.88325 3.38552 8.35117 2.76052 7.6845 2.31569C7.01783 1.87085 6.28967 1.64844 5.5 1.64844C4.50633 1.64844 3.67458 1.98177 3.00475 2.64844C2.33492 3.3151 2 4.14844 2 5.14844C2 5.72544 2.11667 6.3081 2.35 6.89644C2.58333 7.48494 3 8.15835 3.6 8.91669C4.2 9.67502 5.01667 10.5667 6.05 11.5917C7.08333 12.6167 8.4 13.8523 10 15.2984Z" fill="#1D1D1D"/>
</svg>
