<svg width="155" height="30" viewBox="0 0 155 30" fill="none" xmlns="http://www.w3.org/2000/svg">
<rect width="155" height="30" rx="15" fill="#D4B0D9"/>
<path d="M13.2784 21V9.36364H15.0341V19.4886H20.3068V21H13.2784ZM23.9053 9.36364V21H22.1497V9.36364H23.9053ZM26.3022 9.36364H28.4328L32.1374 18.4091H32.2738L35.9783 9.36364H38.109V21H36.4385V12.5795H36.3306L32.8988 20.983H31.5124L28.0806 12.5739H27.9726V21H26.3022V9.36364ZM42.2572 9.36364V21H40.5015V9.36364H42.2572ZM44.0802 10.875V9.36364H53.0859V10.875H49.4552V21H47.7052V10.875H44.0802ZM54.9159 21V9.36364H62.2114V10.875H56.6716V14.4205H61.8307V15.9261H56.6716V19.4886H62.2795V21H54.9159ZM68.1636 21H64.3965V9.36364H68.2829C69.4231 9.36364 70.4022 9.59659 71.2204 10.0625C72.0386 10.5246 72.6655 11.1894 73.1011 12.0568C73.5405 12.9205 73.7602 13.9564 73.7602 15.1648C73.7602 16.3769 73.5386 17.4186 73.0954 18.2898C72.656 19.161 72.0196 19.8314 71.1863 20.3011C70.353 20.767 69.3454 21 68.1636 21ZM66.1522 19.4659H68.067C68.9534 19.4659 69.6901 19.2992 70.2772 18.9659C70.8643 18.6288 71.3037 18.142 71.5954 17.5057C71.8871 16.8655 72.0329 16.0852 72.0329 15.1648C72.0329 14.2519 71.8871 13.4773 71.5954 12.8409C71.3075 12.2045 70.8776 11.7216 70.3056 11.392C69.7337 11.0625 69.0234 10.8977 68.1749 10.8977H66.1522V19.4659ZM79.8578 21V9.36364H87.1532V10.875H81.6135V14.4205H86.7726V15.9261H81.6135V19.4886H87.2214V21H79.8578ZM93.1055 21H89.3384V9.36364H93.2248C94.3649 9.36364 95.3441 9.59659 96.1623 10.0625C96.9805 10.5246 97.6073 11.1894 98.043 12.0568C98.4823 12.9205 98.702 13.9564 98.702 15.1648C98.702 16.3769 98.4805 17.4186 98.0373 18.2898C97.5979 19.161 96.9615 19.8314 96.1282 20.3011C95.2948 20.767 94.2873 21 93.1055 21ZM91.0941 19.4659H93.0089C93.8952 19.4659 94.632 19.2992 95.2191 18.9659C95.8062 18.6288 96.2456 18.142 96.5373 17.5057C96.8289 16.8655 96.9748 16.0852 96.9748 15.1648C96.9748 14.2519 96.8289 13.4773 96.5373 12.8409C96.2494 12.2045 95.8195 11.7216 95.2475 11.392C94.6755 11.0625 93.9653 10.8977 93.1168 10.8977H91.0941V19.4659ZM102.481 9.36364V21H100.725V9.36364H102.481ZM104.304 10.875V9.36364H113.31V10.875H109.679V21H107.929V10.875H104.304ZM116.895 9.36364V21H115.14V9.36364H116.895ZM129.4 15.1818C129.4 16.4242 129.173 17.4924 128.718 18.3864C128.264 19.2765 127.641 19.9621 126.849 20.4432C126.061 20.9205 125.165 21.1591 124.161 21.1591C123.154 21.1591 122.254 20.9205 121.463 20.4432C120.675 19.9621 120.054 19.2746 119.599 18.3807C119.144 17.4867 118.917 16.4205 118.917 15.1818C118.917 13.9394 119.144 12.8731 119.599 11.983C120.054 11.089 120.675 10.4034 121.463 9.92614C122.254 9.44508 123.154 9.20455 124.161 9.20455C125.165 9.20455 126.061 9.44508 126.849 9.92614C127.641 10.4034 128.264 11.089 128.718 11.983C129.173 12.8731 129.4 13.9394 129.4 15.1818ZM127.661 15.1818C127.661 14.2348 127.508 13.4375 127.201 12.7898C126.898 12.1383 126.482 11.6458 125.951 11.3125C125.425 10.9754 124.828 10.8068 124.161 10.8068C123.491 10.8068 122.893 10.9754 122.366 11.3125C121.84 11.6458 121.423 12.1383 121.116 12.7898C120.813 13.4375 120.661 14.2348 120.661 15.1818C120.661 16.1288 120.813 16.928 121.116 17.5795C121.423 18.2273 121.84 18.7197 122.366 19.0568C122.893 19.3902 123.491 19.5568 124.161 19.5568C124.828 19.5568 125.425 19.3902 125.951 19.0568C126.482 18.7197 126.898 18.2273 127.201 17.5795C127.508 16.928 127.661 16.1288 127.661 15.1818ZM140.821 9.36364V21H139.207L133.293 12.4659H133.185V21H131.429V9.36364H133.054L138.974 17.9091H139.082V9.36364H140.821Z" fill="#1D1D1D"/>
</svg>
