<svg width="918" height="138" viewBox="0 0 918 138" fill="none" xmlns="http://www.w3.org/2000/svg">
<path fill-rule="evenodd" clip-rule="evenodd" d="M556.934 0H530.535V26.2249H546.104L529.375 56.9013H546.297L556.934 26.2249V0ZM625.213 84.5801L606.743 82.6447C594.56 81.3544 585.212 77.5803 578.701 71.3225C572.255 65.0646 569.031 56.6133 569.031 45.9685C569.031 34.227 573.318 24.9692 581.892 18.1952C590.466 11.3567 602.134 7.9375 616.897 7.9375C631.143 7.9375 642.65 11.4858 651.417 18.5823C660.249 25.6143 665.277 35.3237 666.502 47.7104H642.425C641.329 40.8719 638.686 35.8398 634.495 32.6141C630.305 29.3239 624.342 27.6788 616.607 27.6788C609.386 27.6788 603.617 29.2594 599.298 32.4206C594.979 35.5817 592.819 39.8074 592.819 45.0976C592.819 49.3555 594.334 52.6457 597.364 54.9682C600.394 57.2262 604.874 58.71 610.805 59.4197L628.017 61.4518C641.812 63.0002 652.062 66.9033 658.766 73.1611C665.471 79.419 668.823 88.1929 668.823 99.4828C668.823 107.031 666.857 113.644 662.924 119.321C658.992 124.934 653.448 129.288 646.292 132.385C639.201 135.482 630.885 137.03 621.345 137.03C605.938 137.03 593.528 133.385 584.116 126.095C574.769 118.74 569.418 108.934 568.064 96.6765H592.335C593.56 103.579 596.558 108.708 601.328 112.063C606.099 115.418 612.835 117.095 621.538 117.095C628.565 117.095 634.238 115.515 638.557 112.353C642.876 109.128 645.035 104.902 645.035 99.6764C645.035 90.967 638.428 85.9349 625.213 84.5801ZM840.216 38.7132H824.164V58.0674H840.216V106.743C840.216 113.259 841.473 118.646 843.987 122.904C846.566 127.162 850.079 130.323 854.527 132.387C859.04 134.452 864.132 135.484 869.805 135.484H880.055V115.162H872.996C870.16 115.162 867.904 114.356 866.227 112.743C864.616 111.066 863.81 107.969 863.81 103.453V58.0674H880.055V38.7132H863.81V13.5527H840.216V38.7132ZM918 109.146H891.602V135.468H918V109.146ZM790.243 79.5509C790.243 71.8738 788.342 66.2933 784.538 62.8096C780.799 59.2613 775.739 57.4872 769.357 57.4872C765.36 57.4872 761.782 58.3904 758.623 60.1968C755.465 61.9386 752.951 64.3902 751.081 67.5514C749.212 70.648 748.277 74.1963 748.277 78.1962V135.485H724.489V38.7136H748.277V53.2778C751.77 47.9681 756.057 43.823 761.138 40.8426C766.746 37.4878 772.483 35.8105 778.35 35.8105C788.728 35.8105 797.238 39.1329 803.878 45.7779C810.582 52.4228 813.934 62.0031 813.934 74.5189V135.485H790.243V79.5509ZM707.711 65.9297H683.924V135.484H707.711V65.9297ZM682.878 0H709.276V26.2249L698.64 56.9013H681.718L698.446 26.2249H682.878V0ZM524.965 135.485V73.5519C524.965 66.0038 523.16 59.4234 519.55 53.8107C515.94 48.1979 510.912 43.8432 504.465 40.7466C498.083 37.6499 490.638 36.1016 482.128 36.1016C473.748 36.1016 466.367 37.4564 459.984 40.1659C453.603 42.8755 448.51 46.6819 444.706 51.5849C440.967 56.4235 438.872 62.133 438.421 68.7134H462.789C464.078 58.7782 470.75 53.8107 482.805 53.8107C487.962 53.8107 492.314 55.359 495.859 58.4557C499.469 61.4878 501.274 65.4554 501.274 70.3585V70.7456C501.274 73.1326 500.694 74.81 499.534 75.7777C498.373 76.7454 496.085 77.3583 492.668 77.6163L466.753 79.3582C457.341 79.9388 450.121 82.6484 445.093 87.487C440.129 92.3255 437.647 99.0995 437.647 107.809C437.647 113.615 439.033 118.776 441.805 123.292C444.577 127.808 448.381 131.356 453.216 133.937C458.051 136.518 463.562 137.808 469.751 137.808C477.035 137.808 483.482 136.131 489.09 132.776C494.148 129.693 498.209 125.56 501.274 120.379V135.485H524.965ZM501.274 96.6802V93.3104L475.456 94.8415C466.173 95.4222 461.532 99.3253 461.532 106.551C461.532 110.422 463.079 113.518 466.173 115.841C469.267 118.163 473.329 119.325 478.357 119.325C482.676 119.325 486.576 118.357 490.057 116.421C493.538 114.422 496.278 111.712 498.277 108.293C500.275 104.873 501.274 101.003 501.274 96.6802ZM399.085 79.5509C399.085 71.8738 397.377 66.2933 393.96 62.8096C390.543 59.2613 385.934 57.4872 380.132 57.4872C376.522 57.4872 373.267 58.3904 370.366 60.1968C367.465 61.9386 365.144 64.3902 363.404 67.5514C361.728 70.648 360.889 74.1963 360.889 78.1962V135.485H337.199V79.5509C337.199 71.8738 335.49 66.2933 332.074 62.8096C328.722 59.2613 324.145 57.4872 318.343 57.4872C314.733 57.4872 311.477 58.3904 308.576 60.1968C305.675 61.9386 303.387 64.3902 301.711 67.5514C300.035 70.648 299.197 74.1963 299.197 78.1962V135.485H275.409V38.7136H299.197V52.6195C302.481 47.6243 306.446 43.6987 311.09 40.8426C316.441 37.4878 321.888 35.8105 327.432 35.8105C337.102 35.8105 345.096 39.1329 351.413 45.7779C354.383 48.902 356.655 52.6749 358.229 57.0967C358.578 56.3721 358.949 55.6636 359.342 54.9711C362.888 48.8423 367.336 44.1328 372.687 40.8426C378.102 37.4878 383.613 35.8105 389.222 35.8105C398.892 35.8105 406.885 39.1329 413.203 45.7779C419.52 52.4228 422.679 62.0031 422.679 74.5189V135.485H399.085V79.5509ZM256.697 61.1597H262.305V36.7734H257.47C252.119 36.7734 246.866 38.5798 241.708 42.1926C237.416 45.1836 233.741 49.2748 230.685 54.4661V38.7089H206.897V135.48H230.685V82.2558C230.685 78.1269 231.749 74.4819 233.876 71.3207C236.068 68.1595 239.098 65.6757 242.966 63.8693C246.898 62.0629 251.475 61.1597 256.697 61.1597ZM96.1323 86.712C96.1323 76.4543 98.1307 67.5191 102.128 59.9064C106.189 52.2938 111.797 46.3908 118.953 42.1974C126.173 37.9394 134.586 35.8105 144.191 35.8105C153.796 35.8105 162.177 37.9394 169.332 42.1974C176.488 46.3908 182.064 52.2938 186.061 59.9064C190.122 67.5191 192.153 76.4543 192.153 86.712C192.153 96.9697 190.122 105.969 186.061 113.711C182.064 121.388 176.488 127.356 169.332 131.614C162.177 135.872 153.796 138.001 144.191 138.001C134.586 138.001 126.173 135.872 118.953 131.614C111.733 127.356 106.124 121.388 102.128 113.711C98.1307 105.969 96.1323 96.9697 96.1323 86.712ZM167.882 86.712C167.882 77.0994 165.787 69.6481 161.596 64.3579C157.471 59.0678 151.669 56.4227 144.191 56.4227C136.713 56.4227 130.847 59.0678 126.592 64.3579C122.337 69.6481 120.21 77.0994 120.21 86.712C120.21 96.4536 122.337 104.002 126.592 109.356C130.847 114.711 136.713 117.388 144.191 117.388C151.669 117.388 157.471 114.711 161.596 109.356C165.787 104.002 167.882 96.4536 167.882 86.712ZM88.2846 31.9342V9.58008H0V135.479H23.7875V86.8033H82.7728V65.3202H23.7875V31.9342H88.2846Z" fill="#1D1D1D"/>
</svg>
